<?xml version="1.0" encoding="UTF-8" standalone="no"?>
<!-- Created with Inkscape (http://www.inkscape.org/) -->

<svg
   width="1024"
   height="1024"
   viewBox="0 0 270.93333 270.93333"
   version="1.1"
   id="svg5"
   xml:space="preserve"
   inkscape:version="1.2 (dc2aedaf03, 2022-05-15)"
   sodipodi:docname="ios_splash_icon.svg"
   xmlns:inkscape="http://www.inkscape.org/namespaces/inkscape"
   xmlns:sodipodi="http://sodipodi.sourceforge.net/DTD/sodipodi-0.dtd"
   xmlns="http://www.w3.org/2000/svg"
   xmlns:svg="http://www.w3.org/2000/svg"><sodipodi:namedview
     id="namedview7"
     pagecolor="#323232"
     bordercolor="#000000"
     borderopacity="0.25"
     inkscape:showpageshadow="2"
     inkscape:pageopacity="0"
     inkscape:pagecheckerboard="0"
     inkscape:deskcolor="#d1d1d1"
     inkscape:document-units="mm"
     showgrid="false"
     inkscape:zoom="0.74564394"
     inkscape:cx="467.38125"
     inkscape:cy="484.14529"
     inkscape:window-width="1920"
     inkscape:window-height="1017"
     inkscape:window-x="-8"
     inkscape:window-y="-8"
     inkscape:window-maximized="1"
     inkscape:current-layer="layer1" /><defs
     id="defs2"><filter
       inkscape:collect="always"
       style="color-interpolation-filters:sRGB"
       id="filter979"
       x="-0.088699224"
       y="-0.088699224"
       width="1.1773984"
       height="1.1773984"><feGaussianBlur
         inkscape:collect="always"
         stdDeviation="8.4455009"
         id="feGaussianBlur981" /></filter></defs><g
     inkscape:label="Réteg 1"
     inkscape:groupmode="layer"
     id="layer1"><rect
       style="fill:#000000;stroke-width:16.3642;paint-order:stroke fill markers;filter:url(#filter979)"
       id="rect299"
       width="228.51613"
       height="228.51613"
       x="21.208605"
       y="21.208605"
       ry="54.263027" /><rect
       style="fill:#ffffff;stroke-width:16.3642;paint-order:stroke fill markers"
       id="rect233"
       width="228.51613"
       height="228.51613"
       x="21.208605"
       y="21.208605"
       ry="54.263027" /><path
       style="fill:#000000;stroke-width:0.330194"
       d="m 132.48786,201.68996 c -6.04484,-3.47768 -14.63482,-6.68437 -21.46263,-8.01213 -7.58415,-1.47484 -9.62353,-1.65599 -18.325773,-1.62783 -10.392153,0.0336 -15.394499,0.63307 -23.373938,2.80098 -4.227876,1.14866 -6.849941,2.11013 -10.632915,3.89893 -3.542709,1.67519 -4.707419,1.71033 -6.36425,0.19199 l -1.233374,-1.13029 -0.0761,-56.73626 -0.07619,-56.73625 1.562017,-1.045658 c 8.294426,-5.552548 18.309826,-8.748567 30.919596,-9.866764 19.723017,-1.74898 37.762087,1.621302 49.275257,9.206217 1.2866,0.84761 2.52861,1.541108 2.76004,1.541108 0.23143,0 1.47344,-0.693498 2.76004,-1.541108 11.48002,-7.563078 29.56064,-10.961861 48.91536,-9.195075 6.28882,0.574072 8.53941,0.925954 12.71248,1.987613 7.52499,1.914407 11.67558,3.63193 17.41774,7.207483 l 2.72411,1.696253 V 140.8963 c 0,61.48472 0.11428,57.71562 -1.78757,58.96175 -1.28022,0.83883 -2.97335,0.65461 -5.91851,-0.64398 -9.66604,-4.26197 -20.23471,-6.72035 -31.09174,-7.23223 -4.52579,-0.21338 -14.70749,0.2395 -17.5003,0.77841 -0.90803,0.17522 -2.76537,0.50025 -4.12743,0.72229 -7.47008,1.21776 -15.40151,4.22685 -21.39144,8.11565 -1.50451,0.97677 -2.7675,1.7603 -2.80665,1.74121 -0.0391,-0.0191 -1.33418,-0.76136 -2.87784,-1.64944 z m 2.8904,-57.96281 -0.0837,-44.127828 -2.97175,-1.599335 c -7.25929,-3.906795 -14.48392,-6.540672 -21.95792,-8.005187 -7.13831,-1.398735 -9.87203,-1.602442 -19.346082,-1.44165 -5.068642,0.08601 -10.181528,0.327445 -11.361972,0.536497 -1.180444,0.209052 -3.186379,0.546484 -4.457623,0.749854 -1.271253,0.203362 -3.702059,0.720577 -5.401805,1.14936 -1.699747,0.428793 -3.148472,0.779609 -3.2194,0.779609 -0.07095,0 -0.128942,19.98132 -0.128942,44.40295 v 44.40296 l 0.908026,-0.34691 c 1.130725,-0.43198 7.222313,-1.89161 9.658183,-2.31425 9.68087,-1.67965 22.115517,-1.67877 32.058695,0.002 7.43945,1.25776 17.79607,5.03511 23.90924,8.72037 1.08963,0.65687 2.09313,1.1999 2.23,1.20673 0.13687,0.007 0.21117,-19.84514 0.1651,-44.11545 z m -10.06292,22.36402 c -3.62363,-1.90212 -9.61944,-3.79607 -15.61089,-4.93114 -8.99501,-1.70408 -24.274788,-1.63845 -34.422742,0.14787 l -1.238232,0.21796 v -5.64155 -5.64153 l 1.073134,-0.1739 c 7.980309,-1.29316 8.399621,-1.32225 18.903623,-1.31177 9.271287,0.01 11.132747,0.10033 15.188937,0.74323 7.18507,1.13882 12.15801,2.41236 16.59226,4.24922 l 2.06371,0.85489 v 6.38925 c 0,3.51409 -0.0372,6.38026 -0.0825,6.36926 -0.0454,-0.011 -1.15566,-0.58331 -2.46725,-1.27179 z m -0.23526,-20.61333 c -5.44266,-2.68253 -12.02738,-4.47621 -20.32854,-5.53748 -4.819193,-0.61613 -20.091921,-0.5116 -24.815766,0.16983 -2.116642,0.30532 -4.308304,0.68703 -4.870363,0.84823 l -1.021935,0.29309 v -5.74906 c 0,-6.59545 -0.513584,-5.76739 3.962337,-6.38853 8.886773,-1.23328 18.247715,-1.42875 26.415537,-0.55158 5.92562,0.63637 8.93842,1.14879 13.86816,2.35871 1.73703,0.42633 9.09245,2.85751 9.33532,3.08561 0.14023,0.1317 0.21453,3.05713 0.1651,6.50096 l -0.0899,6.26152 z m -0.0714,-20.50871 c -2.30555,-1.18447 -4.6044,-2.03817 -9.52579,-3.53747 -8.49351,-2.58753 -26.211014,-3.28723 -36.32136,-1.4344 -1.452853,0.26624 -3.198762,0.58053 -3.879784,0.6984 l -1.238232,0.2143 v -5.8206 c 0,-3.20133 0.05401,-5.82061 0.120031,-5.82061 0.06599,0 0.918228,-0.15137 1.893795,-0.33638 9.171995,-1.73943 26.30605,-1.74908 34.96793,-0.0196 4.51175,0.90079 5.69661,1.17719 8.25486,1.92569 1.54366,0.45165 4.10678,1.33895 5.69585,1.97179 l 2.88919,1.15061 v 6.23903 c 0,3.43148 -0.0372,6.21947 -0.0825,6.19555 -0.0454,-0.024 -1.29368,-0.66573 -2.77395,-1.42623 z m 50.83748,44.60843 c 2.38073,-1.16902 5.16269,-3.8416 6.26673,-6.02032 1.43951,-2.8407 1.55512,-4.50006 1.55512,-22.32028 V 124.4577 h 6.60389 6.60388 v -6.60389 -6.60389 H 186.80482 176.7339 v 17.32347 17.32346 l -1.56842,-0.71055 c -1.27228,-0.5764 -2.22305,-0.71446 -5.03546,-0.7312 -3.07133,-0.0182 -3.67433,0.0772 -5.28312,0.83691 -5.21564,2.46288 -8.12603,7.26893 -7.86661,12.99044 0.18618,4.10621 1.92664,7.37824 5.28829,9.94186 2.63944,2.01287 4.21639,2.47046 8.19163,2.377 3.04996,-0.0717 3.69788,-0.19486 5.38592,-1.02375 z"
       id="path125" /></g></svg>
